<svg xmlns="http://www.w3.org/2000/svg" xmlns:xlink="http://www.w3.org/1999/xlink" width="1376.588" height="265.826" viewBox="0 0 1376.588 265.826">
  <defs>
    <linearGradient id="linear-gradient" x1="-0.029" y1="0.993" x2="0.786" y2="0.233" gradientUnits="objectBoundingBox">
      <stop offset="0" stop-color="#ab5282"/>
      <stop offset="1" stop-color="#ff0a8f"/>
    </linearGradient>
    <linearGradient id="linear-gradient-2" x1="0.034" y1="1.055" x2="0.711" y2="-0.009" gradientUnits="objectBoundingBox">
      <stop offset="0" stop-color="#b84181"/>
      <stop offset="1" stop-color="#ff4cad"/>
    </linearGradient>
  </defs>
  <g id="rolling-block-03" transform="translate(-6.832 -6.621)">
    <path id="Path_18" data-name="Path 18" d="M154.629,95.823,181,136.814c1.238,2.142,1.428,4.618-1.619,4.618H157.1c-2.476,0-3.9-.333-5.189-2.666l-23.9-39.42H105.021v39.42a2.6,2.6,0,0,1-2.666,2.666H82.217a2.769,2.769,0,0,1-2.857-2.666V22.7a2.769,2.769,0,0,1,2.857-2.666h52.036c11.759,0,22.471,2.142,30.66,8.189,8.9,6.618,14.092,18,14.092,31.184,0,11.569-4.285,21.948-13.568,29.755a40.344,40.344,0,0,1-10.855,6.57ZM105.069,41.835V77.684h24.947c6.618,0,11.95-.524,15.711-3.047,4.285-2.666,7.332-7.665,7.332-14.806s-2.666-11.759-6.76-14.616c-3.9-2.476-8.712-3.38-14.092-3.38H105.116Z" transform="translate(272.768 50.431)" fill="#fff"/>
    <path id="Path_19" data-name="Path 19" d="M146.208,28.05c24.614,0,44.228,16.044,44.228,42.61s-19.615,42.419-44.228,42.419S102.17,97.225,102.17,70.66,121.594,28.05,146.208,28.05Zm0,65.271c12.854,0,20.852-9.474,20.852-22.662S159.015,48,146.208,48s-20.853,9.427-20.853,22.662S133.4,93.321,146.208,93.321Z" transform="translate(358.553 80.593)" fill="#fff"/>
    <path id="Path_20" data-name="Path 20" d="M127.236,20.04h18.187a2.725,2.725,0,0,1,2.666,2.666v116.07a2.725,2.725,0,0,1-2.666,2.666H127.236a2.6,2.6,0,0,1-2.666-2.666V22.706A2.6,2.6,0,0,1,127.236,20.04Z" transform="translate(442.797 50.469)" fill="#fff"/>
    <path id="Path_21" data-name="Path 21" d="M137.046,20.04h18.187a2.725,2.725,0,0,1,2.666,2.666v116.07a2.725,2.725,0,0,1-2.666,2.666H137.046a2.6,2.6,0,0,1-2.666-2.666V22.706A2.6,2.6,0,0,1,137.046,20.04Z" transform="translate(479.691 50.469)" fill="#fff"/>
    <path id="Path_22" data-name="Path 22" d="M143.81,31.538A13.472,13.472,0,0,1,157.378,17.97a13.283,13.283,0,0,1,13.378,13.568,13.4,13.4,0,0,1-13.378,13.568A13.562,13.562,0,0,1,143.81,31.538Zm4.475,36.04h18.187a2.6,2.6,0,0,1,2.666,2.666v76.317a2.725,2.725,0,0,1-2.666,2.666H148.285a2.6,2.6,0,0,1-2.666-2.666V70.244A2.5,2.5,0,0,1,148.285,67.578Z" transform="translate(515.156 42.684)" fill="#fff"/>
    <path id="Path_23" data-name="Path 23" d="M177.366,37.857c6.951-7.141,15.663-9.807,24.423-9.807s17.663,2.333,23.9,8c5.713,5.189,9.427,13.568,9.427,25.661V108.6a2.6,2.6,0,0,1-2.666,2.666H214.072a2.725,2.725,0,0,1-2.666-2.666V67.756c0-5.9-.714-11.759-4.094-15.52-2.142-2.476-5.713-4.094-10.712-4.094-13.9,0-19.091,13-19.091,24.756v35.659a2.725,2.725,0,0,1-2.666,2.666H156.656a2.6,2.6,0,0,1-2.666-2.666V32.24a2.5,2.5,0,0,1,2.666-2.666h17.472a2.6,2.6,0,0,1,2.666,2.666v5.523h.524Z" transform="translate(553.441 80.593)" fill="#fff"/>
    <path id="Path_24" data-name="Path 24" d="M228.736,129.875c3.047-3.19,4.618-7.855,4.618-13.711v-8.046c-5.713,3.19-11.759,4.618-19.805,4.618-11.236,0-20.329-3.9-26.9-10.331-7.855-7.665-12.14-19.234-12.14-32.088,0-11.426,3.761-22.995,11.236-31.041,6.427-6.76,15.52-11.236,27.613-11.236A35.61,35.61,0,0,1,233.5,34.61h.524V32.277a2.6,2.6,0,0,1,2.666-2.666h17.472a2.6,2.6,0,0,1,2.666,2.666v80.744c0,13.9-3.9,24.947-12.14,31.9-7.332,6.046-17.282,8.712-29.755,8.712s-24.233-3.571-31.9-8.9c-1.238-1.047-1.761-2.333-1.238-3.571l6.951-13.568a2.673,2.673,0,0,1,4.094-.714,39.794,39.794,0,0,0,22.471,7.141c5.9,0,10.331-1.428,13.378-4.285Zm4.618-41.705V54.463c-3.19-2.333-8.9-6.237-16.377-6.237-5.713,0-10,1.952-12.854,5.189C200.362,57.891,198.6,63.937,198.6,70.7c0,7.475,1.762,13.568,5.332,17.472a16.3,16.3,0,0,0,12.474,5.189A29.361,29.361,0,0,0,233.354,88.17Z" transform="translate(630.614 80.556)" fill="#fff"/>
    <path id="Path_25" data-name="Path 25" d="M256.695,141.442H209.276a2.769,2.769,0,0,1-2.857-2.666V22.706a2.769,2.769,0,0,1,2.857-2.666h36.706c10.141,0,20.662,1.238,29.613,7.665A27.984,27.984,0,0,1,287.355,50.89c0,12.283-5.332,21.376-15.14,25.851v.714C289.5,81.55,297.353,92.6,297.353,108.64c0,22.662-20.329,32.8-40.658,32.8Zm-.714-97.693a17.913,17.913,0,0,0-10.141-2.857H232.129V69.41h12.14c3.19,0,7.141-.19,10.521-1.762,3.9-1.952,6.76-5.9,6.76-12.283,0-5.523-2.142-9.284-5.523-11.569Zm6.76,48.466c-3.571-1.762-8.189-2.142-15.14-2.142h-15.52v30.47h19.091c4.094,0,8.189-.381,11.426-1.762,5-2.142,8.57-6.046,8.57-13.568a13.451,13.451,0,0,0-8.379-13Z" transform="translate(750.623 50.469)" fill="#fff"/>
    <path id="Path_26" data-name="Path 26" d="M232.186,20.04h18.187a2.725,2.725,0,0,1,2.666,2.666v116.07a2.725,2.725,0,0,1-2.666,2.666H232.186a2.6,2.6,0,0,1-2.666-2.666V22.706A2.6,2.6,0,0,1,232.186,20.04Z" transform="translate(837.499 50.469)" fill="#fff"/>
    <path id="Path_27" data-name="Path 27" d="M282.318,28.05c24.614,0,44.228,16.044,44.228,42.61s-19.615,42.419-44.228,42.419S238.28,97.225,238.28,70.66,257.7,28.05,282.318,28.05Zm0,65.271c12.854,0,20.853-9.474,20.853-22.662S295.125,48,282.318,48s-20.853,9.427-20.853,22.662S269.511,93.321,282.318,93.321Z" transform="translate(870.444 80.593)" fill="#fff"/>
    <path id="Path_28" data-name="Path 28" d="M323.235,88.134c1.762-1.047,3.19-.714,3.9.714l6.618,12.854c.714,1.238.19,2.476-1.048,3.38-6.618,4.808-16.568,7.855-27.613,7.855-15,0-26.756-4.618-34.754-13-6.76-7.332-10.712-17.472-10.712-29.613a40.715,40.715,0,0,1,8.9-26.185C276.912,33.813,290.48,28.1,305.62,28.1a46.124,46.124,0,0,1,26.756,8.046,2.663,2.663,0,0,1,1.047,3.571l-6.951,13c-.524,1.238-2.333,1.619-3.9.714-5.713-3.571-10.521-5.332-16.949-5.332a21.913,21.913,0,0,0-16.234,6.76,22.675,22.675,0,0,0-5.713,15.52c0,6.57,2.143,12.283,5.9,16.235a21.245,21.245,0,0,0,16.044,6.618c6.76,0,11.759-1.619,17.663-5Z" transform="translate(950.739 80.781)" fill="#fff"/>
    <path id="Path_29" data-name="Path 29" d="M311.032,109.01l-8.9,8.379v21.376a2.725,2.725,0,0,1-2.666,2.666H281.276a2.6,2.6,0,0,1-2.666-2.666V22.7a2.6,2.6,0,0,1,2.666-2.666h18.187a2.725,2.725,0,0,1,2.666,2.666V91.871l28.9-29.755a5.728,5.728,0,0,1,5.189-2.333h21.376c3.047,0,3.761,2.666,1.761,4.475l-31.9,29.613,32.993,43.324c1.428,1.952,1.238,4.285-1.952,4.285H337.454c-2.333,0-3.38-.714-4.618-2.666l-21.757-29.755Z" transform="translate(1022.12 50.431)" fill="#fff"/>
    <path id="Path_30" data-name="Path 30" d="M260.1,207.384l-162.536,63.7a3.045,3.045,0,0,1-.762.286A19.768,19.768,0,0,1,71.951,259.9L29.818,152.4l-16.33-41.61L8.2,97.408A19.871,19.871,0,0,1,19.439,71.7L181.927,8a19.778,19.778,0,0,1,25.661,11.188l62.129,158.441,1.571,4.047A19.853,19.853,0,0,1,260.1,207.384Z" transform="translate(0 0)" fill="url(#linear-gradient)"/>
    <path id="Path_31" data-name="Path 31" d="M241.943,111.183l-162.536,63.7a3.045,3.045,0,0,1-.762.286,19.768,19.768,0,0,1-24.852-11.474L11.66,56.195a222.18,222.18,0,0,1,239.9,25.233l1.571,4.047a19.854,19.854,0,0,1-11.188,25.709Z" transform="translate(18.158 96.201)" fill="url(#linear-gradient-2)"/>
  </g>
</svg>
