<svg xmlns="http://www.w3.org/2000/svg" width="424.532" height="73.59" viewBox="0 0 424.532 73.59">
  <g id="Group_275" data-name="Group 275" transform="translate(-330.719 -281.257)">
    <g id="Group_267" data-name="Group 267" transform="translate(325.719 281.257)">
      <g id="Group_124" data-name="Group 124" transform="translate(7.803 4.352)" opacity="0.5">
        <rect id="Rectangle_124" data-name="Rectangle 124" width="55.707" height="55.707" rx="5" transform="matrix(-0.966, -0.259, 0.259, -0.966, 53.809, 68.227)" fill="#fc853a"/>
      </g>
      <g id="Group_125" data-name="Group 125" transform="translate(10.974 0.037)" opacity="0.3">
        <rect id="Rectangle_125" data-name="Rectangle 125" width="53.829" height="53.829" rx="5" transform="translate(46.618 73.532) rotate(-150)" fill="#fc853a"/>
      </g>
      <g id="Group_126" data-name="Group 126" transform="translate(20.801 0)" opacity="0.18">
        <rect id="Rectangle_126" data-name="Rectangle 126" width="52.036" height="52.036" rx="5" transform="translate(36.795 73.59) rotate(-135)" fill="#fc853a"/>
      </g>
      <rect id="Rectangle_127" data-name="Rectangle 127" width="57.585" height="57.585" rx="5" transform="translate(62.585 71.584) rotate(180)" fill="#fc853a"/>
    </g>
    <path id="Path_68" data-name="Path 68" d="M20.692,46.489l6.1,9.458c.268.47.335,1.073-.4,1.073H21.229a1.125,1.125,0,0,1-1.207-.6l-5.5-9.055h-5.3v9.055s-.268.6-.6.6H3.991a.619.619,0,0,1-.671-.6V29.654s.268-.6.671-.6H16a11.566,11.566,0,0,1,7.043,1.878,8.7,8.7,0,0,1,3.22,7.177,8.606,8.606,0,0,1-3.152,6.842,10.859,10.859,0,0,1-2.482,1.543ZM9.29,34.081v8.25h5.768a7,7,0,0,0,3.622-.671,3.743,3.743,0,0,0,1.677-3.421,3.77,3.77,0,0,0-1.543-3.354,5.62,5.62,0,0,0-3.22-.8H9.357Z" transform="translate(431.015 282.516)" fill="#fff"/>
    <path id="Path_69" data-name="Path 69" d="M22.255,57.765c-8.384,0-15.025-5.7-15.025-14.354S13.87,28.99,22.255,28.99s14.958,5.768,14.958,14.421S30.639,57.765,22.255,57.765Zm0-23.208a8.609,8.609,0,0,0-8.72,8.854,8.609,8.609,0,0,0,8.72,8.854,8.515,8.515,0,0,0,8.653-8.854A8.555,8.555,0,0,0,22.255,34.557Z" transform="translate(453.329 282.174)" fill="#fff"/>
    <path id="Path_70" data-name="Path 70" d="M17.716,29.107a.563.563,0,0,1,.6.6V51.845H30.259a.619.619,0,0,1,.671.6v3.957s-.268.6-.671.6H13.021a.619.619,0,0,1-.671-.6V29.644s.268-.6.671-.6h4.628Z" transform="translate(482.554 282.459)" fill="#fff"/>
    <path id="Path_71" data-name="Path 71" d="M21.036,29.107a.563.563,0,0,1,.6.6V51.845H33.579a.619.619,0,0,1,.671.6v3.957s-.268.6-.671.6H16.341a.619.619,0,0,1-.671-.6V29.644s.268-.6.671-.6h4.628Z" transform="translate(501.503 282.459)" fill="#fff"/>
    <path id="Path_72" data-name="Path 72" d="M24.3,29.05a.563.563,0,0,1,.6.6V56.417s-.268.6-.6.6H19.671a.619.619,0,0,1-.671-.6V29.654s.268-.6.671-.6Z" transform="translate(520.508 282.516)" fill="#fff"/>
    <path id="Path_73" data-name="Path 73" d="M40.027,29.654s.268-.6.6-.6h4.427s.6.268.6.6V56.417s-.268.6-.6.6H40.967a1.129,1.129,0,0,1-1.14-.6L26.411,38.91V56.417s-.268.6-.6.6H21.381a.619.619,0,0,1-.671-.6V29.654s.268-.6.671-.6h4.092c.47,0,.738.134,1.14.671L40.027,47.227V29.654Z" transform="translate(530.267 282.516)" fill="#fff"/>
    <path id="Path_74" data-name="Path 74" d="M48.566,30.821c.4.268.47.537.268.872L46.956,35.65c-.134.335-.47.335-.8.268a13.928,13.928,0,0,0-6.171-1.61,8.806,8.806,0,0,0-8.72,8.988c0,5.366,3.555,9.189,8.72,9.189a11.217,11.217,0,0,0,5.97-1.61V47.456h-5.7s-.6-.268-.6-.6V42.827s.268-.6.6-.6H50.914a.563.563,0,0,1,.6.6V56.712s-.268.6-.6.6h-4.36s-.6-.268-.6-.6v-.469a13.976,13.976,0,0,1-6.573,1.543c-7.982,0-14.287-5.031-14.287-14.421,0-8.116,6.707-14.354,15.025-14.354a17.4,17.4,0,0,1,8.451,1.945Z" transform="translate(555.267 282.288)" fill="#fff"/>
    <path id="Path_75" data-name="Path 75" d="M14.934,63.98H4a.619.619,0,0,1-.671-.6V36.614s.268-.6.671-.6h8.451a11.385,11.385,0,0,1,6.842,1.744,6.42,6.42,0,0,1,2.683,5.366c0,2.817-1.207,4.964-3.488,5.97v.134c3.957.939,5.768,3.488,5.768,7.177,0,5.232-4.7,7.579-9.39,7.579Zm-.2-22.537a4.015,4.015,0,0,0-2.348-.671H9.233v6.573H12.05a5.24,5.24,0,0,0,2.415-.4,2.962,2.962,0,0,0,1.543-2.817,3,3,0,0,0-1.274-2.683Zm1.543,11.2a8.05,8.05,0,0,0-3.488-.47H9.233v7.043h4.427a6.505,6.505,0,0,0,2.616-.4,3.075,3.075,0,0,0,1.945-3.152A3.16,3.16,0,0,0,16.275,52.645Z" transform="translate(622.333 275.422)" fill="#fff"/>
    <path id="Path_76" data-name="Path 76" d="M12.476,36.067a.563.563,0,0,1,.6.6V58.805H25.019a.619.619,0,0,1,.671.6v3.957s-.268.6-.671.6H7.781a.619.619,0,0,1-.671-.6V36.6s.268-.6.671-.6h4.628Z" transform="translate(643.908 275.365)" fill="#fff"/>
    <path id="Path_77" data-name="Path 77" d="M25,64.725c-8.384,0-15.025-5.7-15.025-14.354S16.62,35.95,25,35.95s14.958,5.768,14.958,14.421S33.389,64.725,25,64.725Zm0-23.208a8.855,8.855,0,0,0,0,17.708,8.515,8.515,0,0,0,8.653-8.854A8.555,8.555,0,0,0,25,41.517Z" transform="translate(660.288 275.08)" fill="#fff"/>
    <path id="Path_78" data-name="Path 78" d="M14.95,50.3c0-8.183,6.64-14.354,15.025-14.354A17.4,17.4,0,0,1,38.426,37.9c.4.268.47.537.268.872l-1.878,3.957a.566.566,0,0,1-.8.268,13.091,13.091,0,0,0-6.171-1.61,8.794,8.794,0,0,0-8.653,8.988,8.74,8.74,0,0,0,8.72,9.055,13.157,13.157,0,0,0,6.372-1.61c.4-.134.6-.134.738.2L38.9,62.042c.134.4.067.6-.268.8a17.789,17.789,0,0,1-8.72,2.012c-9.055,0-14.891-5.567-14.891-14.421Z" transform="translate(688.654 275.08)" fill="#fff"/>
    <path id="Path_79" data-name="Path 79" d="M27.3,52.5l-2.281,2.281v8.586s-.268.6-.6.6H19.791a.619.619,0,0,1-.671-.6V36.6s.268-.6.671-.6h4.628a.563.563,0,0,1,.6.6V47.269L34.681,36.6a1.757,1.757,0,0,1,1.274-.6h5.97c.537,0,.738.47.268.939L31.462,48.14,42.529,62.9c.4.47.4,1.073-.335,1.073h-5.5a1.286,1.286,0,0,1-1.207-.6Z" transform="translate(712.454 275.365)" fill="#fff"/>
  </g>
</svg>
